<svg xmlns="http://www.w3.org/2000/svg" viewBox="0 0 240 72" role="img" aria-labelledby="brandLogoTitle brandLogoDesc">
  <title id="brandLogoTitle">Ghost Kitchen Logo</title>
  <desc id="brandLogoDesc">A premium rounded badge with a rose culinary emblem and GK monogram.</desc>
  <defs>
    <linearGradient id="brandAccent" x1="10" y1="12" x2="58" y2="60" gradientUnits="userSpaceOnUse">
      <stop offset="0" stop-color="#fb7185"/>
      <stop offset="1" stop-color="#e11d48"/>
    </linearGradient>
    <filter id="brandShadow" x="-10%" y="-20%" width="120%" height="140%">
      <feDropShadow dx="0" dy="8" stdDeviation="10" flood-color="#0f172a" flood-opacity="0.16"/>
    </filter>
  </defs>
  <g filter="url(#brandShadow)">
    <rect x="2" y="4" width="236" height="64" rx="24" fill="#ffffff" fill-opacity="0.92" stroke="#d7dde4"/>
  </g>
  <rect x="10" y="12" width="48" height="48" rx="16" fill="url(#brandAccent)"/>
  <g fill="none" stroke="#ffffff" stroke-linecap="round" stroke-linejoin="round" stroke-width="3.2">
    <path d="M23 39c1.9-8.1 7.5-12.2 15-12.2S51.1 30.9 53 39"/>
    <path d="M21 42h34"/>
    <path d="M38 22.5v4.5"/>
    <path d="M34.5 22.5h7"/>
  </g>
  <g fill="none" stroke="#111827" stroke-linecap="round" stroke-linejoin="round" stroke-width="5">
    <path d="M94 24c-4.4-3.9-11.1-4.1-15.6-.5-5.8 4.9-5.8 15.1 0 20 4.5 3.6 11.2 3.4 15.6-.5"/>
    <path d="M94 34h-10"/>
    <path d="M120 23v26"/>
    <path d="M120 36h17"/>
    <path d="M136 23l-16 13"/>
    <path d="M136 49l-16-13"/>
  </g>
  <path d="M156 25h55" fill="none" stroke="#111827" stroke-linecap="round" stroke-width="4" stroke-opacity="0.14"/>
  <path d="M156 47h71" fill="none" stroke="#111827" stroke-linecap="round" stroke-width="4" stroke-opacity="0.14"/>
  <circle cx="220" cy="25" r="3.5" fill="#e11d48" fill-opacity="0.7"/>
</svg>
